<svg xmlns="http://www.w3.org/2000/svg" xmlns:xlink="http://www.w3.org/1999/xlink" width="500" zoomAndPan="magnify" viewBox="0 0 375 374.999991" height="500" preserveAspectRatio="xMidYMid meet" version="1.0"><defs><clipPath id="e84c2b5386"><path d="M 28 179 L 347 179 L 347 346.214844 L 28 346.214844 Z M 28 179 " clip-rule="nonzero"/></clipPath><clipPath id="2218e1f5b2"><path d="M 12.082031 145 L 363 145 L 363 196 L 12.082031 196 Z M 12.082031 145 " clip-rule="nonzero"/></clipPath><clipPath id="24e9423371"><path d="M 137 28.964844 L 238 28.964844 L 238 80 L 137 80 Z M 137 28.964844 " clip-rule="nonzero"/></clipPath></defs><path fill="#78419f" d="M 297.078125 176.511719 L 259.285156 70.707031 L 115.875 70.707031 L 78.09375 176.511719 L 46.648438 165.273438 L 88.386719 48.390625 C 90.757812 41.746094 97.050781 37.3125 104.105469 37.3125 L 271.058594 37.3125 C 278.109375 37.3125 284.40625 41.746094 286.777344 48.390625 L 328.515625 165.273438 Z M 297.078125 176.511719 " fill-opacity="1" fill-rule="nonzero"/><g clip-path="url(#e84c2b5386)"><path fill="#8d4dbb" d="M 299.4375 346.214844 L 75.722656 346.214844 C 67.375 346.214844 60.695312 340.371094 59.027344 332.855469 L 28.976562 179.242188 L 346.1875 179.242188 L 315.300781 332.855469 C 313.628906 340.371094 306.953125 346.214844 299.4375 346.214844 Z M 299.4375 346.214844 " fill-opacity="1" fill-rule="nonzero"/></g><g clip-path="url(#2218e1f5b2)"><path fill="#b98bdb" d="M 346.1875 195.9375 L 28.976562 195.9375 C 19.792969 195.9375 12.28125 188.425781 12.28125 179.242188 L 12.28125 162.542969 C 12.28125 153.359375 19.792969 145.847656 28.976562 145.847656 L 346.1875 145.847656 C 355.367188 145.847656 362.882812 153.359375 362.882812 162.542969 L 362.882812 179.242188 C 362.882812 188.425781 355.367188 195.9375 346.1875 195.9375 Z M 346.1875 195.9375 " fill-opacity="1" fill-rule="nonzero"/></g><path fill="#ffffff" d="M 187.582031 220.984375 C 182.972656 220.984375 179.234375 224.726562 179.234375 229.332031 L 179.234375 312.820312 C 179.234375 317.828125 182.570312 321.167969 187.582031 321.167969 C 192.589844 321.167969 195.929688 317.828125 195.929688 312.820312 L 195.929688 229.332031 C 195.929688 224.726562 192.1875 220.984375 187.582031 220.984375 Z M 220.972656 220.984375 C 216.363281 220.984375 212.625 224.726562 212.625 229.332031 L 212.625 312.820312 C 212.625 317.828125 215.960938 321.167969 220.972656 321.167969 C 225.980469 321.167969 229.320312 317.828125 229.320312 312.820312 L 229.320312 229.332031 C 229.320312 224.726562 225.578125 220.984375 220.972656 220.984375 Z M 254.363281 220.984375 C 249.753906 220.984375 246.015625 224.726562 246.015625 229.332031 L 246.015625 312.820312 C 246.015625 317.828125 249.351562 321.167969 254.363281 321.167969 C 259.371094 321.167969 262.710938 317.828125 262.710938 312.820312 L 262.710938 229.332031 C 262.710938 224.726562 258.96875 220.984375 254.363281 220.984375 Z M 120.800781 220.984375 C 116.191406 220.984375 112.453125 224.726562 112.453125 229.332031 L 112.453125 312.820312 C 112.453125 317.828125 115.789062 321.167969 120.800781 321.167969 C 125.808594 321.167969 129.148438 317.828125 129.148438 312.820312 L 129.148438 229.332031 C 129.148438 224.726562 125.40625 220.984375 120.800781 220.984375 Z M 154.191406 220.984375 C 149.582031 220.984375 145.84375 224.726562 145.84375 229.332031 L 145.84375 312.820312 C 145.84375 317.828125 149.179688 321.167969 154.191406 321.167969 C 159.199219 321.167969 162.539062 317.828125 162.539062 312.820312 L 162.539062 229.332031 C 162.539062 224.726562 158.796875 220.984375 154.191406 220.984375 Z M 154.191406 220.984375 " fill-opacity="1" fill-rule="nonzero"/><g clip-path="url(#24e9423371)"><path fill="#b98bdb" d="M 229.320312 79.058594 L 145.84375 79.058594 C 141.234375 79.058594 137.496094 75.316406 137.496094 70.707031 L 137.496094 37.3125 C 137.496094 32.703125 141.234375 28.964844 145.84375 28.964844 L 229.320312 28.964844 C 233.925781 28.964844 237.667969 32.703125 237.667969 37.3125 L 237.667969 70.707031 C 237.667969 75.316406 233.925781 79.058594 229.320312 79.058594 Z M 229.320312 79.058594 " fill-opacity="1" fill-rule="nonzero"/></g></svg>